<svg xmlns="http://www.w3.org/2000/svg" width="14.359" height="19.007" viewBox="0 0 14.359 19.007">
  <path id="Path_56" data-name="Path 56" d="M29.891,18.794c.3-2-1.222-3.071-3.3-3.787l.674-2.705-1.647-.41-.657,2.634c-.433-.108-.878-.21-1.319-.311l.661-2.651-1.646-.41-.675,2.7c-.358-.082-.71-.162-1.052-.247l0-.008-2.271-.567-.438,1.759s1.222.28,1.2.3a.876.876,0,0,1,.767.958l-.768,3.082a1.364,1.364,0,0,1,.171.055l-.174-.043L18.338,23.46a.6.6,0,0,1-.755.391c.016.024-1.2-.3-1.2-.3l-.818,1.885,2.143.534c.4.1.789.2,1.174.3L18.2,29.011l1.645.41.675-2.707c.449.122.886.235,1.312.341l-.673,2.695,1.647.41.682-2.731c2.808.531,4.92.317,5.809-2.223a2.889,2.889,0,0,0-1.513-3.994,2.626,2.626,0,0,0,2.1-2.418ZM26.128,24.07c-.509,2.045-3.952.939-5.068.662l.9-3.625C23.08,21.386,26.66,21.938,26.128,24.07Zm.509-5.306c-.464,1.86-3.33.915-4.26.683l.82-3.288C24.127,16.392,27.121,16.824,26.637,18.765Z" transform="translate(-15.569 -11.153)" fill="#6d7585"/>
</svg>
