<svg xmlns="http://www.w3.org/2000/svg" xmlns:xlink="http://www.w3.org/1999/xlink" width="22.444" height="22.444" viewBox="0 0 22.444 22.444">
  <defs>
    <linearGradient id="linear-gradient" x1="0.865" y1="0.053" x2="0.168" y2="0.907" gradientUnits="objectBoundingBox">
      <stop offset="0" stop-color="gold"/>
      <stop offset="1" stop-color="#ffab00"/>
    </linearGradient>
    <linearGradient id="linear-gradient-2" x1="0.5" y1="0.11" x2="0.5" y2="0.862" gradientUnits="objectBoundingBox">
      <stop offset="0" stop-color="gold"/>
      <stop offset="1" stop-color="#ff9a00"/>
    </linearGradient>
    <linearGradient id="linear-gradient-3" x1="0.362" y1="0.205" x2="0.727" y2="0.985" gradientUnits="objectBoundingBox">
      <stop offset="0" stop-color="#fff"/>
      <stop offset="1" stop-color="#ff9a00"/>
    </linearGradient>
    <linearGradient id="linear-gradient-4" x1="0.371" y1="0.189" x2="0.614" y2="0.773" gradientUnits="objectBoundingBox">
      <stop offset="0"/>
      <stop offset="1" stop-color="#ffc857"/>
    </linearGradient>
    <linearGradient id="linear-gradient-5" x1="0.5" y1="1.117" x2="0.5" y2="0.024" gradientUnits="objectBoundingBox">
      <stop offset="0" stop-color="#c24400"/>
      <stop offset="1" stop-color="#fff"/>
    </linearGradient>
    <linearGradient id="linear-gradient-6" x1="0.49" y1="0.461" x2="0.422" y2="0.113" xlink:href="#linear-gradient-4"/>
    <linearGradient id="linear-gradient-7" x1="0.5" y1="0.908" x2="0.5" y2="0.054" xlink:href="#linear-gradient-2"/>
    <linearGradient id="linear-gradient-8" x1="0.5" y1="0.106" x2="0.5" y2="0.746" xlink:href="#linear-gradient-2"/>
    <linearGradient id="linear-gradient-9" x1="0.563" y1="0.613" x2="0.262" y2="0.076" xlink:href="#linear-gradient-4"/>
    <linearGradient id="linear-gradient-10" x1="0.5" y1="-7.292" x2="0.5" y2="36.871" xlink:href="#linear-gradient-4"/>
  </defs>
  <g id="Group_140" data-name="Group 140" transform="translate(-1357 -1387)">
    <g id="Group_94" data-name="Group 94" transform="translate(1206.511 1298.448)">
      <g id="Group_93" data-name="Group 93" transform="translate(150.489 88.552)">
        <g id="Group_92" data-name="Group 92" transform="translate(0 0)">
          <circle id="Ellipse_27" data-name="Ellipse 27" cx="11.222" cy="11.222" r="11.222" fill="url(#linear-gradient)"/>
          <circle id="Ellipse_28" data-name="Ellipse 28" cx="10.743" cy="10.743" r="10.743" transform="translate(0.479 0.479)" fill="url(#linear-gradient-2)"/>
          <circle id="Ellipse_29" data-name="Ellipse 29" cx="10.743" cy="10.743" r="10.743" transform="translate(0.479 0.479)" fill="url(#linear-gradient-3)" style="mix-blend-mode: multiply;isolation: isolate"/>
          <path id="Path_133" data-name="Path 133" d="M159.087,111.55A10.476,10.476,0,0,1,175.456,98.7c-.34.625-.7,1.239-1.087,1.833a8.429,8.429,0,0,0-13.231,10.408C160.464,111.172,159.777,111.375,159.087,111.55Z" transform="translate(-156.812 -94.875)" fill="url(#linear-gradient-4)" style="mix-blend-mode: screen;isolation: isolate"/>
          <path id="Path_134" data-name="Path 134" d="M272.875,218h-.094a.912.912,0,0,0-.868.584,8.317,8.317,0,0,1-6.173,5.169.915.915,0,0,0-.717.713l0,.023a1.129,1.129,0,0,0,1.344,1.336,10.477,10.477,0,0,0,7.63-6.642A.893.893,0,0,0,273.1,218Q272.987,218,272.875,218Z" transform="translate(-252.946 -204.379)" opacity="0.35" fill="url(#linear-gradient-5)" style="mix-blend-mode: multiply;isolation: isolate"/>
          <path id="Path_135" data-name="Path 135" d="M159.621,105.6q.2,0,.4.014a.836.836,0,0,0,.879-.7,8.3,8.3,0,0,1,9.546-6.885,1.325,1.325,0,0,0,1.375-.641l.011-.019a.939.939,0,0,0-.615-1.39,10.47,10.47,0,0,0-12.453,8.628.861.861,0,0,0,.851.993Z" transform="translate(-157.881 -95.004)" fill="url(#linear-gradient-6)" style="mix-blend-mode: screen;isolation: isolate"/>
          <circle id="Ellipse_30" data-name="Ellipse 30" cx="8.166" cy="8.166" r="8.166" transform="translate(3.055 3.055)" fill="url(#linear-gradient-7)"/>
          <circle id="Ellipse_31" data-name="Ellipse 31" cx="7.534" cy="7.534" r="7.534" transform="translate(3.688 3.688)" fill="url(#linear-gradient-8)"/>
          <circle id="Ellipse_32" data-name="Ellipse 32" cx="7.534" cy="7.534" r="7.534" transform="translate(3.688 3.688)" fill="url(#linear-gradient-9)" style="mix-blend-mode: screen;isolation: isolate"/>
          <g id="Group_90" data-name="Group 90" transform="translate(10.099 4.45)" style="mix-blend-mode: screen;isolation: isolate">
            <path id="Path_136" data-name="Path 136" d="M246.758,131.12h1.713a.266.266,0,0,1,.266.266v-.264a.266.266,0,0,0-.266-.266h-1.713a.266.266,0,0,0-.266.266v.264A.266.266,0,0,1,246.758,131.12Z" transform="translate(-246.492 -130.856)" fill="url(#linear-gradient-10)"/>
          </g>
          <g id="Group_91" data-name="Group 91" transform="translate(10.652 11.716)" opacity="0.8" style="mix-blend-mode: multiply;isolation: isolate">
            <path id="Path_137" data-name="Path 137" d="M251.747,199.931" transform="translate(-251.747 -199.931)" fill="#fff"/>
          </g>
        </g>
      </g>
    </g>
    <path id="Path_138" data-name="Path 138" d="M100.8,115.787a1.412,1.412,0,0,0-.715-1.081,6,6,0,0,0-.615-.274c.025-.016.041-.033.058-.042a1.682,1.682,0,0,0,.191-2.684,2.738,2.738,0,0,0-1.006-.449c-.258-.058-.515-.1-.781-.141,0-.465.008-1.105.008-1.621h-.964c-.008.507-.008,1.13-.016,1.587h-.781c0-.457.008-1.081.008-1.587h-.972c-.008.515-.008,1.155-.017,1.612-.665-.008-1.3-.008-1.97-.017,0,.357-.008.69-.008,1.039.141,0,.266,0,.382.008s.249,0,.366.008a.5.5,0,0,1,.515.548c-.008,1.388-.025,2.784-.042,4.172,0,.307-.133.424-.432.424h-.648c-.067.39-.133.764-.2,1.155l1.97.025c0,.5-.008,1.13-.008,1.654H96.1c.008-.524.008-1.139.017-1.629l.781.025c0,.5-.008,1.105-.008,1.612h.972c.008-.524.008-1.139.017-1.621.033-.008.058-.008.083-.017.465-.075.939-.116,1.388-.224a1.831,1.831,0,0,0,1.3-1.072A2.631,2.631,0,0,0,100.8,115.787Zm-4.612-3.557a4.092,4.092,0,0,1,1.745.2.8.8,0,0,1,.524.814.837.837,0,0,1-.632.781,4.621,4.621,0,0,1-1.662.141C96.181,113.535,96.181,112.9,96.189,112.23Zm2.119,4.854a4.123,4.123,0,0,1-1.679.249c-.158,0-.316-.008-.491-.008.008-.723.017-1.43.025-2.153a5.127,5.127,0,0,1,2.161.249.889.889,0,0,1-.016,1.662Z" transform="translate(1271.649 1283.495)" fill="#bf4500"/>
  </g>
</svg>
