<svg xmlns="http://www.w3.org/2000/svg" width="26.375" height="40.25" viewBox="0 0 26.375 40.25">
  <g id="Group_87" data-name="Group 87" transform="translate(-343.124 -155.478)">
    <g id="Group_86" data-name="Group 86" transform="translate(343.124 155.478)">
      <path id="Path_80" data-name="Path 80" d="M348.471,163.049a3.593,3.593,0,0,1-.942-.669,2.533,2.533,0,0,1-.384-.48,2.127,2.127,0,0,1-.149-.295,1.719,1.719,0,0,1-.092-.339,1.448,1.448,0,0,1-.011-.368,2.9,2.9,0,0,1,.056-.317,2.362,2.362,0,0,1,.231-.6,3.452,3.452,0,0,1,.777-.915c.281-.248.56-.463.818-.684a.633.633,0,0,0,.189-.57,1.34,1.34,0,0,0-.328-.7,1.879,1.879,0,0,0-.684-.489,2.5,2.5,0,0,0-.867-.189,3.255,3.255,0,0,0-.915.077,2.282,2.282,0,0,0-1.4.974,3.863,3.863,0,0,0-.564,1.762,9.167,9.167,0,0,0,.056,2A20.441,20.441,0,0,0,346.892,169a19.473,19.473,0,0,0,5.492,6.042.591.591,0,1,1-.686.962h0l0,0a20.62,20.62,0,0,1-5.791-6.428,21.533,21.533,0,0,1-2.7-8.207,9.885,9.885,0,0,1-.031-2.228,4.859,4.859,0,0,1,.766-2.214,3.317,3.317,0,0,1,.879-.872,3.561,3.561,0,0,1,.549-.294,3.842,3.842,0,0,1,.585-.186,4.21,4.21,0,0,1,1.189-.084,3.443,3.443,0,0,1,1.186.283,2.8,2.8,0,0,1,1.009.752,2.239,2.239,0,0,1,.523,1.2,1.659,1.659,0,0,1-.083.715,1.445,1.445,0,0,1-.432.622c-.282.233-.566.445-.818.661a2.627,2.627,0,0,0-.6.676,1.511,1.511,0,0,0-.157.386.869.869,0,0,0-.023.1c-.005.032-.017.077-.018.1a.611.611,0,0,0,0,.16,1.529,1.529,0,0,0,.363.724,5.051,5.051,0,0,0,.684.678l.017.014a.291.291,0,0,1-.316.484Z" transform="translate(-343.124 -155.478)" fill="#f8b805"/>
      <g id="Group_50" data-name="Group 50" transform="translate(0 0)">
        <path id="Path_81" data-name="Path 81" d="M348.471,163.049a3.593,3.593,0,0,1-.942-.669,2.533,2.533,0,0,1-.384-.48,2.127,2.127,0,0,1-.149-.295,1.719,1.719,0,0,1-.092-.339,1.448,1.448,0,0,1-.011-.368,2.9,2.9,0,0,1,.056-.317,2.362,2.362,0,0,1,.231-.6,3.452,3.452,0,0,1,.777-.915c.281-.248.56-.463.818-.684a.633.633,0,0,0,.189-.57,1.34,1.34,0,0,0-.328-.7,1.879,1.879,0,0,0-.684-.489,2.5,2.5,0,0,0-.867-.189,3.255,3.255,0,0,0-.915.077,2.282,2.282,0,0,0-1.4.974,3.863,3.863,0,0,0-.564,1.762,9.167,9.167,0,0,0,.056,2A20.441,20.441,0,0,0,346.892,169a19.473,19.473,0,0,0,5.492,6.042.591.591,0,1,1-.686.962h0l0,0a20.62,20.62,0,0,1-5.791-6.428,21.533,21.533,0,0,1-2.7-8.207,9.885,9.885,0,0,1-.031-2.228,4.859,4.859,0,0,1,.766-2.214,3.317,3.317,0,0,1,.879-.872,3.561,3.561,0,0,1,.549-.294,3.842,3.842,0,0,1,.585-.186,4.21,4.21,0,0,1,1.189-.084,3.443,3.443,0,0,1,1.186.283,2.8,2.8,0,0,1,1.009.752,2.239,2.239,0,0,1,.523,1.2,1.659,1.659,0,0,1-.083.715,1.445,1.445,0,0,1-.432.622c-.282.233-.566.445-.818.661a2.627,2.627,0,0,0-.6.676,1.511,1.511,0,0,0-.157.386.869.869,0,0,0-.023.1c-.005.032-.017.077-.018.1a.611.611,0,0,0,0,.16,1.529,1.529,0,0,0,.363.724,5.051,5.051,0,0,0,.684.678l.017.014a.291.291,0,0,1-.316.484Z" transform="translate(-343.124 -155.478)" fill="#f8b805"/>
        <path id="Path_82" data-name="Path 82" d="M357.805,181.673a.37.37,0,0,1-.216-.069,20.468,20.468,0,0,1-5.733-6.363,21.167,21.167,0,0,1-2.67-8.123,9.521,9.521,0,0,1-.031-2.179,4.59,4.59,0,0,1,.729-2.116,3.112,3.112,0,0,1,.821-.815,3.35,3.35,0,0,1,.513-.275,3.637,3.637,0,0,1,.549-.174,3.917,3.917,0,0,1,.837-.089c.1,0,.192,0,.288.01a3.2,3.2,0,0,1,1.112.264,2.594,2.594,0,0,1,.931.693,2.023,2.023,0,0,1,.474,1.086,1.442,1.442,0,0,1-.072.621,1.222,1.222,0,0,1-.367.527c-.12.1-.241.195-.36.289-.161.128-.313.248-.459.373a2.775,2.775,0,0,0-.653.735,1.728,1.728,0,0,0-.177.433.832.832,0,0,0-.022.094l-.012.064c-.005.026-.01.052-.012.072a.832.832,0,0,0,0,.209,1.751,1.751,0,0,0,.411.843,5.212,5.212,0,0,0,.714.707l.017.014a.074.074,0,0,1,.009.1.074.074,0,0,1-.089.019,3.365,3.365,0,0,1-.887-.629,2.308,2.308,0,0,1-.35-.437,1.9,1.9,0,0,1-.134-.266,1.469,1.469,0,0,1-.078-.288,1.213,1.213,0,0,1-.01-.311.679.679,0,0,1,.013-.1c0-.019.007-.039.01-.06l.006-.032a.818.818,0,0,1,.02-.093,2.179,2.179,0,0,1,.214-.554,3.267,3.267,0,0,1,.73-.855c.159-.14.321-.272.477-.4.116-.095.229-.187.339-.281a.846.846,0,0,0,.264-.76,1.545,1.545,0,0,0-.38-.82,2.1,2.1,0,0,0-.762-.546,2.718,2.718,0,0,0-.943-.207c-.065,0-.13-.005-.2-.005a3.41,3.41,0,0,0-.779.088,2.511,2.511,0,0,0-1.537,1.067,4.035,4.035,0,0,0-.6,1.86,9.271,9.271,0,0,0,.057,2.045,20.718,20.718,0,0,0,2.663,7.836,19.781,19.781,0,0,0,5.553,6.11.373.373,0,0,1,.087.52A.374.374,0,0,1,357.805,181.673Z" transform="translate(-348.889 -161.253)" fill="#f8b805" opacity="0.1" style="mix-blend-mode: screen;isolation: isolate"/>
        <g id="Group_49" data-name="Group 49" transform="translate(0.001 0.696)">
          <g id="Group_48" data-name="Group 48">
            <g id="Group_44" data-name="Group 44" transform="translate(3.762 4.82)">
              <path id="Path_83" data-name="Path 83" d="M446.95,307.938a2.089,2.089,0,0,1-.148-.291,1.76,1.76,0,0,1-.082-.291,1.6,1.6,0,0,0,.018.272,1.718,1.718,0,0,0,.092.339,2.123,2.123,0,0,0,.149.295,2.531,2.531,0,0,0,.384.48,3.594,3.594,0,0,0,.942.669.291.291,0,0,0,.343-.457.288.288,0,0,1-.382.12,3.569,3.569,0,0,1-.935-.661A2.5,2.5,0,0,1,446.95,307.938Z" transform="translate(-446.72 -307.355)" fill="#f7a108"/>
            </g>
            <g id="Group_45" data-name="Group 45" transform="translate(1.038)">
              <path id="Path_84" data-name="Path 84" d="M371.756,177.718a3.863,3.863,0,0,1,.564-1.762,2.282,2.282,0,0,1,1.4-.974,3.254,3.254,0,0,1,.915-.077,2.5,2.5,0,0,1,.867.189,1.879,1.879,0,0,1,.684.489,1.418,1.418,0,0,1,.291.523.892.892,0,0,0-.005-.1,1.321,1.321,0,0,0-.326-.693,1.865,1.865,0,0,0-.679-.483,2.5,2.5,0,0,0-.861-.187,3.247,3.247,0,0,0-.909.076,2.265,2.265,0,0,0-1.395.963,3.805,3.805,0,0,0-.56,1.741,7.609,7.609,0,0,0-.024,1.034A7.36,7.36,0,0,1,371.756,177.718Z" transform="translate(-371.717 -174.642)" fill="#f7a108"/>
            </g>
            <g id="Group_46" data-name="Group 46" transform="translate(0 3.732)">
              <path id="Path_85" data-name="Path 85" d="M352.559,292.686a.575.575,0,0,1-.082.172.588.588,0,0,1-.818.136h0l0,0a20.406,20.406,0,0,1-5.749-6.351,21.2,21.2,0,0,1-2.678-8.108c-.042-.372-.072-.756-.078-1.144a11.476,11.476,0,0,0,.079,1.461,21.533,21.533,0,0,0,2.7,8.207,20.62,20.62,0,0,0,5.791,6.428l0,0h0a.59.59,0,0,0,.838-.8Z" transform="translate(-343.149 -277.388)" fill="#f7a108"/>
            </g>
            <g id="Group_47" data-name="Group 47" transform="translate(4.561 1.274)">
              <path id="Path_86" data-name="Path 86" d="M470.86,209.73a1.631,1.631,0,0,1-.083.706,1.428,1.428,0,0,1-.429.614c-.28.23-.562.44-.812.653a2.6,2.6,0,0,0-.6.668,1.491,1.491,0,0,0-.156.381.855.855,0,0,0-.023.1c-.005.032-.017.077-.018.1a.6.6,0,0,0,0,.158.8.8,0,0,0,.035.156h0c0-.021.012-.066.018-.1a.868.868,0,0,1,.023-.1,1.51,1.51,0,0,1,.157-.386,2.626,2.626,0,0,1,.6-.676c.252-.216.535-.428.818-.661a1.445,1.445,0,0,0,.432-.622,1.659,1.659,0,0,0,.083-.715,2.04,2.04,0,0,0-.049-.278Z" transform="translate(-468.734 -209.725)" fill="#f7a108"/>
            </g>
          </g>
        </g>
        <path id="Path_87" data-name="Path 87" d="M527.4,633.133a19.2,19.2,0,0,1-2.664-2.3,8.829,8.829,0,0,0,1,2.508c.318.26.643.511.976.751l0,0h0a.591.591,0,1,0,.686-.961Z" transform="translate(-518.143 -613.568)" fill="#f7a108"/>
      </g>
      <g id="Group_57" data-name="Group 57" transform="translate(16.867 0)">
        <path id="Path_88" data-name="Path 88" d="M811.709,163.049a3.594,3.594,0,0,0,.942-.669,2.537,2.537,0,0,0,.384-.48,2.134,2.134,0,0,0,.149-.295,1.717,1.717,0,0,0,.092-.339,1.447,1.447,0,0,0,.011-.368,1.513,1.513,0,0,0-.024-.163,1.566,1.566,0,0,0-.032-.154,2.36,2.36,0,0,0-.231-.6,3.453,3.453,0,0,0-.777-.915c-.281-.248-.56-.463-.818-.684a.633.633,0,0,1-.189-.57,1.339,1.339,0,0,1,.328-.7,1.879,1.879,0,0,1,.684-.489,2.5,2.5,0,0,1,.867-.189,3.256,3.256,0,0,1,.915.077,2.281,2.281,0,0,1,1.4.974,3.864,3.864,0,0,1,.565,1.762,9.18,9.18,0,0,1-.056,2A20.442,20.442,0,0,1,813.288,169a19.473,19.473,0,0,1-5.492,6.042.591.591,0,1,0,.687.962h0l0,0a20.621,20.621,0,0,0,5.791-6.428,21.534,21.534,0,0,0,2.7-8.207,9.885,9.885,0,0,0,.031-2.228,4.859,4.859,0,0,0-.766-2.214,3.316,3.316,0,0,0-.879-.872,3.56,3.56,0,0,0-.549-.294,3.839,3.839,0,0,0-.585-.186,4.209,4.209,0,0,0-1.189-.084,3.443,3.443,0,0,0-1.186.283,2.8,2.8,0,0,0-1.009.752,2.238,2.238,0,0,0-.523,1.2,1.659,1.659,0,0,0,.083.715,1.445,1.445,0,0,0,.432.622c.282.233.566.445.818.661a2.627,2.627,0,0,1,.6.676,1.515,1.515,0,0,1,.157.386.874.874,0,0,1,.023.1c.005.032.017.077.018.1a.611.611,0,0,1,0,.16,1.53,1.53,0,0,1-.363.724,5.057,5.057,0,0,1-.684.678l-.017.014a.291.291,0,0,0,.316.484Z" transform="translate(-807.549 -155.478)" fill="#f8b805"/>
        <path id="Path_89" data-name="Path 89" d="M813.913,181.673a.37.37,0,0,0,.216-.069,20.469,20.469,0,0,0,5.733-6.363,21.168,21.168,0,0,0,2.67-8.123,9.519,9.519,0,0,0,.031-2.179,4.589,4.589,0,0,0-.729-2.116,3.112,3.112,0,0,0-.821-.815,3.351,3.351,0,0,0-.513-.275,3.633,3.633,0,0,0-.549-.174,3.917,3.917,0,0,0-.837-.089c-.1,0-.192,0-.288.01a3.2,3.2,0,0,0-1.112.264,2.593,2.593,0,0,0-.931.693,2.024,2.024,0,0,0-.474,1.086,1.443,1.443,0,0,0,.072.621,1.221,1.221,0,0,0,.367.527c.12.1.241.195.36.289.161.128.313.248.459.373a2.776,2.776,0,0,1,.653.735,1.732,1.732,0,0,1,.177.433.819.819,0,0,1,.022.094l.012.064c.005.026.01.052.012.072a.832.832,0,0,1,0,.209,1.751,1.751,0,0,1-.411.843,5.212,5.212,0,0,1-.714.707l-.017.014a.074.074,0,0,0-.009.1.074.074,0,0,0,.089.019,3.364,3.364,0,0,0,.887-.629,2.306,2.306,0,0,0,.35-.437,1.9,1.9,0,0,0,.134-.266,1.469,1.469,0,0,0,.078-.288,1.212,1.212,0,0,0,.01-.311.689.689,0,0,0-.013-.1c0-.019-.007-.039-.011-.06l-.006-.032a.8.8,0,0,0-.02-.093,2.171,2.171,0,0,0-.214-.554,3.268,3.268,0,0,0-.73-.855c-.159-.14-.321-.272-.477-.4-.116-.095-.229-.187-.339-.281a.846.846,0,0,1-.263-.76,1.544,1.544,0,0,1,.38-.82,2.1,2.1,0,0,1,.762-.546,2.718,2.718,0,0,1,.943-.207c.065,0,.13-.005.2-.005a3.41,3.41,0,0,1,.779.088,2.511,2.511,0,0,1,1.537,1.067,4.035,4.035,0,0,1,.6,1.86,9.275,9.275,0,0,1-.057,2.045,20.718,20.718,0,0,1-2.663,7.836A19.781,19.781,0,0,1,813.7,181a.373.373,0,0,0-.087.52A.374.374,0,0,0,813.913,181.673Z" transform="translate(-813.322 -161.253)" fill="#f8b805" opacity="0.1" style="mix-blend-mode: screen;isolation: isolate"/>
        <g id="Group_56" data-name="Group 56" transform="translate(0.001 0.696)">
          <g id="Group_55" data-name="Group 55">
            <g id="Group_51" data-name="Group 51" transform="translate(3.739 4.82)">
              <path id="Path_90" data-name="Path 90" d="M912.295,307.938a2.092,2.092,0,0,0,.148-.291,1.776,1.776,0,0,0,.082-.291,1.607,1.607,0,0,1-.018.272,1.709,1.709,0,0,1-.092.339,2.12,2.12,0,0,1-.149.295,2.535,2.535,0,0,1-.384.48,3.6,3.6,0,0,1-.942.669.291.291,0,0,1-.343-.457.286.286,0,0,0,.032.047.291.291,0,0,0,.35.073,3.572,3.572,0,0,0,.935-.661A2.506,2.506,0,0,0,912.295,307.938Z" transform="translate(-910.52 -307.355)" fill="#f7a108"/>
            </g>
            <g id="Group_52" data-name="Group 52" transform="translate(3.702)">
              <path id="Path_91" data-name="Path 91" d="M914.236,177.718a3.864,3.864,0,0,0-.565-1.762,2.282,2.282,0,0,0-1.4-.974,3.254,3.254,0,0,0-.915-.077,2.5,2.5,0,0,0-.867.189,1.879,1.879,0,0,0-.684.489,1.418,1.418,0,0,0-.291.523.861.861,0,0,1,.005-.1,1.32,1.32,0,0,1,.326-.693,1.865,1.865,0,0,1,.679-.483,2.5,2.5,0,0,1,.861-.187,3.246,3.246,0,0,1,.909.076,2.265,2.265,0,0,1,1.395.963,3.8,3.8,0,0,1,.56,1.741,7.589,7.589,0,0,1,.024,1.034A7.387,7.387,0,0,0,914.236,177.718Z" transform="translate(-909.509 -174.642)" fill="#f7a108"/>
            </g>
            <g id="Group_53" data-name="Group 53" transform="translate(0 3.732)">
              <path id="Path_92" data-name="Path 92" d="M807.659,292.686a.574.574,0,0,0,.082.172.588.588,0,0,0,.818.136h0l0,0a20.405,20.405,0,0,0,5.749-6.351,21.2,21.2,0,0,0,2.678-8.108c.042-.372.072-.756.078-1.144a11.459,11.459,0,0,1-.079,1.461,21.532,21.532,0,0,1-2.7,8.207,20.619,20.619,0,0,1-5.791,6.428l0,0h0a.59.59,0,0,1-.838-.8Z" transform="translate(-807.564 -277.388)" fill="#f7a108"/>
            </g>
            <g id="Group_54" data-name="Group 54" transform="translate(2.761 1.274)">
              <path id="Path_93" data-name="Path 93" d="M883.656,209.73a1.631,1.631,0,0,0,.083.706,1.427,1.427,0,0,0,.429.614c.28.23.562.44.812.653a2.6,2.6,0,0,1,.6.668,1.492,1.492,0,0,1,.156.381.855.855,0,0,1,.023.1c.005.032.017.077.018.1a.6.6,0,0,1,0,.158.8.8,0,0,1-.035.156h0c0-.021-.012-.066-.018-.1a.851.851,0,0,0-.023-.1,1.512,1.512,0,0,0-.157-.386,2.627,2.627,0,0,0-.6-.676c-.252-.216-.535-.428-.818-.661a1.445,1.445,0,0,1-.432-.622,1.659,1.659,0,0,1-.083-.715,2.045,2.045,0,0,1,.049-.278Z" transform="translate(-883.599 -209.725)" fill="#f7a108"/>
            </g>
          </g>
        </g>
        <path id="Path_94" data-name="Path 94" d="M807.8,633.133a19.206,19.206,0,0,0,2.664-2.3,8.829,8.829,0,0,1-1,2.508c-.318.26-.643.511-.976.751l0,0h0a.591.591,0,1,1-.687-.961Z" transform="translate(-807.549 -613.568)" fill="#f7a108"/>
      </g>
      <g id="Group_62" data-name="Group 62" transform="translate(9.274 22.427)">
        <path id="Path_95" data-name="Path 95" d="M604.133,773.184a7.5,7.5,0,0,0-3.49,0c.126,2.614.459,4.992-2.168,6.5a7.916,7.916,0,0,0,7.827,0C603.674,778.176,604.007,775.8,604.133,773.184Z" transform="translate(-598.475 -772.979)" fill="#f8b805"/>
        <g id="Group_61" data-name="Group 61" transform="translate(0 0.034)" opacity="0.5" style="mix-blend-mode: multiply;isolation: isolate">
          <g id="Group_60" data-name="Group 60">
            <g id="Group_58" data-name="Group 58" transform="translate(4.555)">
              <path id="Path_96" data-name="Path 96" d="M723.942,773.925c-.107,2.882-.1,5.48,1.708,7.319a9.512,9.512,0,0,0,1.525-.648c-2.627-1.508-2.295-3.886-2.168-6.5A7.693,7.693,0,0,0,723.942,773.925Z" transform="translate(-723.904 -773.925)" fill="#f8b805"/>
            </g>
            <g id="Group_59" data-name="Group 59" transform="translate(0 6.635)">
              <path id="Path_97" data-name="Path 97" d="M598.535,956.617l-.06.036.026.013Z" transform="translate(-598.475 -956.617)" fill="#f8b805"/>
            </g>
          </g>
        </g>
        <path id="Path_98" data-name="Path 98" d="M637.519,774.288a3.529,3.529,0,0,0-.6.158c.083,2.613.3,4.992-1.423,6.5a5.684,5.684,0,0,0,.735.5C637.667,779.719,637.6,777.144,637.519,774.288Z" transform="translate(-634.15 -774.24)" fill="#f8b805" opacity="0.5" style="mix-blend-mode: screen;isolation: isolate"/>
      </g>
      <g id="Group_70" data-name="Group 70" transform="translate(5.801 6.063)">
        <g id="Group_69" data-name="Group 69">
          <path id="Path_99" data-name="Path 99" d="M516.776,325.72a1.883,1.883,0,0,1,.489-1.268.556.556,0,0,0,.142-.476q-.028-.146-.058-.288a.537.537,0,0,0-.388-.406,26.825,26.825,0,0,0-13.45,0,.537.537,0,0,0-.394.408q-.03.14-.058.284a.556.556,0,0,0,.142.476,1.888,1.888,0,0,1-.156,2.689.552.552,0,0,0-.2.439c.3,6.123,3.494,13.273,7.386,13.273s7.082-7.149,7.386-13.273a.552.552,0,0,0-.2-.439A1.884,1.884,0,0,1,516.776,325.72Z" transform="translate(-502.846 -322.427)" fill="#f8b805"/>
          <path id="Path_100" data-name="Path 100" d="M504.444,327.142a.6.6,0,0,0-.145.191,49.327,49.327,0,0,1,14.671.006.6.6,0,0,0-.149-.2,1.888,1.888,0,0,1-.156-2.689.556.556,0,0,0,.142-.476q-.028-.146-.058-.288a.537.537,0,0,0-.388-.406,26.826,26.826,0,0,0-13.45,0,.537.537,0,0,0-.394.407q-.03.14-.058.284a.556.556,0,0,0,.142.476,1.888,1.888,0,0,1-.156,2.689Z" transform="translate(-504.246 -322.427)" fill="#f8b805" opacity="0.3" style="mix-blend-mode: screen;isolation: isolate"/>
          <path id="Path_101" data-name="Path 101" d="M522.8,323.976q-.028-.146-.058-.288a.537.537,0,0,0-.388-.406,26.826,26.826,0,0,0-13.45,0,.537.537,0,0,0-.394.407q-.03.14-.058.284a.556.556,0,0,0,.142.476,1.884,1.884,0,0,1-.1,2.633,35.468,35.468,0,0,1,14.262,0,1.884,1.884,0,0,1-.1-2.633A.556.556,0,0,0,522.8,323.976Z" transform="translate(-508.239 -322.427)" fill="#f8b805"/>
          <g id="Group_65" data-name="Group 65" transform="translate(8.646 0.247)" opacity="0.5" style="mix-blend-mode: multiply;isolation: isolate">
            <g id="Group_64" data-name="Group 64">
              <g id="Group_63" data-name="Group 63">
                <path id="Path_102" data-name="Path 102" d="M746.849,333.7a1.888,1.888,0,0,1-.156-2.689.556.556,0,0,0,.142-.476q-.028-.146-.058-.288a.537.537,0,0,0-.388-.406,26.537,26.537,0,0,0-3.074-.608c.366.106.731.226,1.1.365a.51.51,0,0,1,.274.418q.022.146.041.3a.76.76,0,0,1-.1.49,2.5,2.5,0,0,0-.345,1.3,2.4,2.4,0,0,0,.455,1.462.7.7,0,0,1,.139.452c-.18,5.305-1.805,11.358-3.954,13.14,3.3-1.315,5.855-7.575,6.126-13.022A.552.552,0,0,0,746.849,333.7Z" transform="translate(-740.921 -329.23)" fill="#f8b805"/>
              </g>
            </g>
          </g>
          <g id="Group_68" data-name="Group 68" transform="translate(1.445 0.467)" opacity="0.5" style="mix-blend-mode: screen;isolation: isolate">
            <g id="Group_67" data-name="Group 67">
              <g id="Group_66" data-name="Group 66">
                <path id="Path_103" data-name="Path 103" d="M543.8,339.859a.748.748,0,0,1,.128-.452,2.547,2.547,0,0,0,.417-1.462,2.67,2.67,0,0,0-.316-1.3.818.818,0,0,1-.092-.49q.018-.148.037-.292a.509.509,0,0,1,.255-.419c.132-.052.263-.1.395-.147q-.726.167-1.454.391a.5.5,0,0,0-.317.407q-.024.14-.046.284a.651.651,0,0,0,.114.476,2.158,2.158,0,0,1,.393,1.268,2.1,2.1,0,0,1-.519,1.421.617.617,0,0,0-.159.439c.208,5.208,2.1,11.157,4.581,12.82C545.349,350.795,543.957,344.978,543.8,339.859Z" transform="translate(-542.633 -335.29)" fill="#f8b805"/>
              </g>
            </g>
          </g>
        </g>
      </g>
      <g id="Group_74" data-name="Group 74" transform="translate(7.88 28.696)">
        <path id="Path_104" data-name="Path 104" d="M568.869,945.607h-6.942a1.837,1.837,0,0,0-1.836,1.837v.49h10.615v-.49A1.837,1.837,0,0,0,568.869,945.607Z" transform="translate(-560.091 -945.607)" fill="#f8b805"/>
        <path id="Path_105" data-name="Path 105" d="M568.869,945.607h-6.942a1.837,1.837,0,0,0-1.836,1.837v.49h10.615v-.49A1.837,1.837,0,0,0,568.869,945.607Z" transform="translate(-560.091 -945.607)" fill="#f7a108" opacity="0.1"/>
        <path id="Path_106" data-name="Path 106" d="M560.091,978.309v.443h10.615v-.443a1.832,1.832,0,0,0-.128-.673H560.219A1.831,1.831,0,0,0,560.091,978.309Z" transform="translate(-560.091 -976.473)" fill="#f7a108" opacity="0.1" style="mix-blend-mode: multiply;isolation: isolate"/>
        <path id="Path_107" data-name="Path 107" d="M580.633,945.835h7.708a1.828,1.828,0,0,1,.734.154,1.826,1.826,0,0,0-1.117-.381h-6.942a1.826,1.826,0,0,0-1.117.381A1.829,1.829,0,0,1,580.633,945.835Z" transform="translate(-579.18 -945.607)" fill="#f8b805" opacity="0.1" style="mix-blend-mode: screen;isolation: isolate"/>
        <g id="Group_73" data-name="Group 73" transform="translate(1.012)" opacity="0.5" style="mix-blend-mode: screen;isolation: isolate">
          <g id="Group_72" data-name="Group 72">
            <g id="Group_71" data-name="Group 71">
              <path id="Path_108" data-name="Path 108" d="M590.762,945.607H589.8a1.837,1.837,0,0,0-1.837,1.837v.49h.961v-.49A1.837,1.837,0,0,1,590.762,945.607Z" transform="translate(-587.964 -945.607)" fill="#f8b805"/>
            </g>
          </g>
        </g>
        <path id="Path_109" data-name="Path 109" d="M760.971,945.607h-1.538a1.837,1.837,0,0,1,1.837,1.837v.49h1.538v-.49A1.837,1.837,0,0,0,760.971,945.607Z" transform="translate(-752.193 -945.607)" fill="#f8b805" opacity="0.3" style="mix-blend-mode: multiply;isolation: isolate"/>
      </g>
      <path id="Path_110" data-name="Path 110" d="M505.246,315.709a25.906,25.906,0,0,0-14.023,0,.648.648,0,0,1-.794-.434l0-.013a.651.651,0,0,1,.447-.818,27.217,27.217,0,0,1,14.725,0,.651.651,0,0,1,.447.818l0,.013A.648.648,0,0,1,505.246,315.709Z" transform="translate(-485.047 -307.693)" fill="#f8b805"/>
      <g id="Group_75" data-name="Group 75" transform="translate(5.349 5.737)">
        <path id="Path_111" data-name="Path 111" d="M505.246,315.709a25.906,25.906,0,0,0-14.023,0,.648.648,0,0,1-.794-.434l0-.013a.651.651,0,0,1,.447-.818,27.217,27.217,0,0,1,14.725,0,.651.651,0,0,1,.447.818l0,.013A.648.648,0,0,1,505.246,315.709Z" transform="translate(-490.396 -313.43)" fill="#f8b805"/>
        <path id="Path_112" data-name="Path 112" d="M563.5,315.116a25.329,25.329,0,0,0-10.763,0,.147.147,0,0,1-.175-.11h0a.146.146,0,0,1,.114-.174,25.62,25.62,0,0,1,10.887,0,.147.147,0,0,1,.114.174h0A.147.147,0,0,1,563.5,315.116Z" transform="translate(-550.3 -314.217)" fill="#f8b805" opacity="0.5" style="mix-blend-mode: screen;isolation: isolate"/>
        <path id="Path_113" data-name="Path 113" d="M505.882,340.732a.819.819,0,0,1-.025.642.559.559,0,0,1-.152.142.689.689,0,0,1-.562.069,25,25,0,0,0-14.051-.088c-.25.068-.582-.145-.538-.6,0-.042-.01-.081-.008-.12a.649.649,0,0,0-.119.6l0,.013a.648.648,0,0,0,.794.434,25.906,25.906,0,0,1,14.024,0,.647.647,0,0,0,.794-.434l0-.013A.647.647,0,0,0,505.882,340.732Z" transform="translate(-490.398 -339.548)" fill="#f8b805" opacity="0.7" style="mix-blend-mode: multiply;isolation: isolate"/>
      </g>
      <path id="Path_114" data-name="Path 114" d="M606.757,471.01l1.158,2.347,2.59.376-1.874,1.827.442,2.58-2.317-1.218-2.317,1.218.442-2.58-1.874-1.827,2.59-.376Z" transform="translate(-593.57 -459.551)" fill="#f7a108" opacity="0.5" style="mix-blend-mode: multiply;isolation: isolate"/>
      <g id="Group_82" data-name="Group 82" transform="translate(6.208 30.005)">
        <path id="Path_115" data-name="Path 115" d="M526.254,981.64H515.8a1.754,1.754,0,0,0-1.754,1.754v1.154h13.959v-1.154A1.754,1.754,0,0,0,526.254,981.64Z" transform="translate(-514.049 -981.64)" fill="#f8b805"/>
        <rect id="Rectangle_30" data-name="Rectangle 30" width="13.959" height="1.117" transform="translate(0 1.792)" fill="#f7a108" opacity="0.3" style="mix-blend-mode: multiply;isolation: isolate"/>
        <path id="Path_116" data-name="Path 116" d="M528.489,981.937H539.7a1.744,1.744,0,0,1,.883.24,1.748,1.748,0,0,0-1.262-.537h-10.45a1.748,1.748,0,0,0-1.262.537A1.744,1.744,0,0,1,528.489,981.937Z" transform="translate(-527.114 -981.64)" fill="#f8b805" opacity="0.1" style="mix-blend-mode: screen;isolation: isolate"/>
        <g id="Group_78" data-name="Group 78" transform="translate(10.532)" opacity="0.3" style="mix-blend-mode: multiply;isolation: isolate">
          <g id="Group_77" data-name="Group 77">
            <g id="Group_76" data-name="Group 76">
              <path id="Path_117" data-name="Path 117" d="M805.726,981.64h-1.672a1.754,1.754,0,0,1,1.754,1.754v1.154h1.672v-1.154A1.754,1.754,0,0,0,805.726,981.64Z" transform="translate(-804.054 -981.64)" fill="#f8b805"/>
            </g>
          </g>
        </g>
        <g id="Group_81" data-name="Group 81" transform="translate(1.199)" opacity="0.5" style="mix-blend-mode: screen;isolation: isolate">
          <g id="Group_80" data-name="Group 80">
            <g id="Group_79" data-name="Group 79">
              <path id="Path_118" data-name="Path 118" d="M549.768,981.64h-.948a1.754,1.754,0,0,0-1.754,1.754v1.154h.948v-1.154A1.754,1.754,0,0,1,549.768,981.64Z" transform="translate(-547.065 -981.64)" fill="#f8b805"/>
            </g>
          </g>
        </g>
      </g>
      <g id="Group_85" data-name="Group 85" transform="translate(3.51 32.082)">
        <path id="Path_119" data-name="Path 119" d="M492.381,1038.847h-16.6a.173.173,0,0,0-.163.182v7.184a.173.173,0,0,0,.163.182h16.6a.173.173,0,0,0,.163-.182v-7.184A.173.173,0,0,0,492.381,1038.847Z" transform="translate(-474.315 -1038.847)" fill="#35281f"/>
        <path id="Path_120" data-name="Path 120" d="M492.381,1206.131h-16.6a.173.173,0,0,1-.163-.182v1.3a.173.173,0,0,0,.163.182h16.6a.173.173,0,0,0,.163-.182v-1.3A.173.173,0,0,1,492.381,1206.131Z" transform="translate(-474.315 -1199.88)" fill="#35281f" opacity="0.3" style="mix-blend-mode: multiply;isolation: isolate"/>
        <g id="Group_83" data-name="Group 83" transform="translate(1.353)" opacity="0.3" style="mix-blend-mode: multiply;isolation: isolate">
          <path id="Path_121" data-name="Path 121" d="M477.129,1245.339h1.021c-.383,0-.761-.018-1.134-.051A.154.154,0,0,0,477.129,1245.339Z" transform="translate(-477.016 -1237.791)" fill="#35281f"/>
          <path id="Path_122" data-name="Path 122" d="M523.816,1038.847H518.74c-.784,4.275-5.188,7.548-10.5,7.548h15.58a.173.173,0,0,0,.163-.182v-7.184A.173.173,0,0,0,523.816,1038.847Z" transform="translate(-507.102 -1038.847)" fill="#35281f"/>
        </g>
        <path id="Path_123" data-name="Path 123" d="M492.381,1038.847h-16.6a.173.173,0,0,0-.163.182v.236a.173.173,0,0,1,.163-.182h16.6a.173.173,0,0,1,.163.182v-.236A.173.173,0,0,0,492.381,1038.847Z" transform="translate(-474.315 -1038.847)" fill="#35281f" opacity="0.3" style="mix-blend-mode: screen;isolation: isolate"/>
        <path id="Path_124" data-name="Path 124" d="M459.091,1219.889h-19.12a.218.218,0,0,0-.206.229v1.134a.218.218,0,0,0,.206.229h19.12a.218.218,0,0,0,.206-.229v-1.134A.218.218,0,0,0,459.091,1219.889Z" transform="translate(-439.765 -1213.314)" fill="#35281f"/>
        <path id="Path_125" data-name="Path 125" d="M459.091,1251.981h-19.12a.218.218,0,0,1-.206-.229v.206a.218.218,0,0,0,.206.229h19.12a.218.218,0,0,0,.206-.229v-.206A.218.218,0,0,1,459.091,1251.981Z" transform="translate(-439.765 -1244.02)" fill="#35281f" opacity="0.3" style="mix-blend-mode: multiply;isolation: isolate"/>
        <path id="Path_126" data-name="Path 126" d="M459.091,1219.889h-19.12a.218.218,0,0,0-.206.229v.212a.218.218,0,0,1,.206-.229h19.12a.218.218,0,0,1,.206.229v-.212A.218.218,0,0,0,459.091,1219.889Z" transform="translate(-439.765 -1213.314)" fill="#35281f" opacity="0.3" style="mix-blend-mode: screen;isolation: isolate"/>
        <path id="Path_127" data-name="Path 127" d="M827.232,1219.889H821.78a.218.218,0,0,1,.206.229v1.134a.218.218,0,0,1-.206.229h5.452a.218.218,0,0,0,.206-.229v-1.134A.218.218,0,0,0,827.232,1219.889Z" transform="translate(-807.906 -1213.314)" fill="#35281f" opacity="0.3" style="mix-blend-mode: multiply;isolation: isolate"/>
        <path id="Path_128" data-name="Path 128" d="M486.643,1221.252v-1.134a.218.218,0,0,1,.206-.229h-2.966a.218.218,0,0,0-.206.229v1.134a.218.218,0,0,0,.206.229h2.966A.218.218,0,0,1,486.643,1221.252Z" transform="translate(-482.082 -1213.314)" fill="#35281f" opacity="0.3" style="mix-blend-mode: screen;isolation: isolate"/>
        <rect id="Rectangle_31" data-name="Rectangle 31" width="13.894" height="4.561" transform="translate(2.804 1.113)" fill="#efca6f"/>
        <g id="Group_84" data-name="Group 84" transform="translate(2.804 1.113)">
          <rect id="Rectangle_32" data-name="Rectangle 32" width="13.894" height="0.097" transform="translate(0 4.463)" fill="#efca6f" opacity="0.5" style="mix-blend-mode: multiply;isolation: isolate"/>
          <rect id="Rectangle_33" data-name="Rectangle 33" width="13.894" height="0.097" fill="#efca6f" opacity="0.5" style="mix-blend-mode: screen;isolation: isolate"/>
        </g>
        <path id="Path_129" data-name="Path 129" d="M691.451,1069.5a9.047,9.047,0,0,1-3.691,4.561h7.692V1069.5Z" transform="translate(-678.753 -1068.387)" fill="#efca6f" opacity="0.3" style="mix-blend-mode: multiply;isolation: isolate"/>
        <path id="Path_130" data-name="Path 130" d="M525.959,1078.052a.24.24,0,1,0-.238.265A.253.253,0,0,0,525.959,1078.052Z" transform="translate(-522.37 -1076.373)" fill="#efca6f" opacity="0.5" style="mix-blend-mode: screen;isolation: isolate"/>
        <ellipse id="Ellipse_18" data-name="Ellipse 18" cx="0.238" cy="0.265" rx="0.238" ry="0.265" transform="translate(15.931 1.415)" fill="#efca6f" opacity="0.5" style="mix-blend-mode: screen;isolation: isolate"/>
        <ellipse id="Ellipse_19" data-name="Ellipse 19" cx="0.238" cy="0.265" rx="0.238" ry="0.265" transform="translate(15.931 4.838)" fill="#efca6f" opacity="0.5" style="mix-blend-mode: screen;isolation: isolate"/>
        <ellipse id="Ellipse_20" data-name="Ellipse 20" cx="0.238" cy="0.265" rx="0.238" ry="0.265" transform="translate(3.095 1.386)" fill="#35281f"/>
        <path id="Path_131" data-name="Path 131" d="M525.959,1172.255a.24.24,0,1,0-.238.265A.253.253,0,0,0,525.959,1172.255Z" transform="translate(-522.37 -1167.154)" fill="#efca6f" opacity="0.5" style="mix-blend-mode: screen;isolation: isolate"/>
        <ellipse id="Ellipse_21" data-name="Ellipse 21" cx="0.238" cy="0.265" rx="0.238" ry="0.265" transform="translate(3.095 4.806)" fill="#35281f"/>
        <ellipse id="Ellipse_22" data-name="Ellipse 22" cx="0.238" cy="0.265" rx="0.238" ry="0.265" transform="translate(15.931 1.386)" fill="#35281f"/>
        <ellipse id="Ellipse_23" data-name="Ellipse 23" cx="0.238" cy="0.265" rx="0.238" ry="0.265" transform="translate(15.931 4.806)" fill="#35281f"/>
      </g>
    </g>
  </g>
</svg>
