<svg xmlns="http://www.w3.org/2000/svg" width="12.583" height="10.299" viewBox="0 0 12.583 10.299">
  <g id="Group_17" data-name="Group 17" transform="translate(-695.998 -403.994)">
    <path id="Path_49" data-name="Path 49" d="M27.056,22.809a.763.763,0,0,0,0-1.525H18.6l.988-.988a.763.763,0,0,0-1.079-1.079l-2.288,2.288a.763.763,0,0,0,.538,1.3Z" transform="translate(680 385)" fill="#f8f8f9"/>
    <path id="Path_50" data-name="Path 50" d="M29.057,36H18.763a.763.763,0,1,0,0,1.525h8.453l-.988.988a.763.763,0,0,0,1.079,1.079L29.595,37.3a.763.763,0,0,0-.538-1.3Z" transform="translate(678.762 374.478)" fill="#f8f8f9"/>
  </g>
</svg>
