<svg xmlns="http://www.w3.org/2000/svg" width="8.084" height="7.934" viewBox="0 0 8.084 7.934">
  <g id="multiply-mathematical-sign" transform="translate(0 -0.86)">
    <g id="Group_19" data-name="Group 19" transform="translate(0 0.86)">
      <path id="Path_51" data-name="Path 51" d="M.188,8.605a.641.641,0,0,0,.907,0L4.042,5.658,6.99,8.605A.641.641,0,0,0,7.9,7.7L4.949,4.751l2.8-2.8a.641.641,0,0,0-.907-.907l-2.8,2.8-2.8-2.8a.641.641,0,0,0-.907.907l2.8,2.8L.188,7.7A.641.641,0,0,0,.188,8.605Z" transform="translate(0 -0.86)" fill="#6d7585"/>
    </g>
  </g>
</svg>
