<svg xmlns="http://www.w3.org/2000/svg" width="10.814" height="10.245" viewBox="0 0 10.814 10.245">
  <g id="percent" transform="translate(0 -6.928)">
    <path id="Path_52" data-name="Path 52" d="M66,7a.616.616,0,0,0-.828.27l-4.582,9.012a.616.616,0,1,0,1.1.558l4.582-9.012A.616.616,0,0,0,66,7Z" transform="translate(-58.035 0)" fill="#6d7585"/>
    <path id="Path_53" data-name="Path 53" d="M4.673,26.265A2.337,2.337,0,1,0,2.337,28.6,2.339,2.339,0,0,0,4.673,26.265Zm-2.337,1.1a1.1,1.1,0,1,1,1.1-1.1A1.106,1.106,0,0,1,2.337,27.369Z" transform="translate(0 -16.302)" fill="#6d7585"/>
    <path id="Path_54" data-name="Path 54" d="M151.843,125.58a2.337,2.337,0,1,0,2.337,2.337A2.339,2.339,0,0,0,151.843,125.58Zm0,3.441a1.1,1.1,0,1,1,1.1-1.1A1.106,1.106,0,0,1,151.843,129.021Z" transform="translate(-143.365 -113.779)" fill="#6d7585"/>
  </g>
</svg>
