<svg xmlns="http://www.w3.org/2000/svg" width="23.324" height="23" viewBox="0 0 23.324 23">
  <g id="race-flag" transform="translate(-27.228 0)">
    <path id="Path_4" data-name="Path 4" d="M236.215,217.966v3.6c-1.392-.38-2.785-.864-4.177-1.244v-3.6C233.43,217.1,234.823,217.586,236.215,217.966Z" transform="translate(-194.016 -205.3)" fill="#06223d"/>
    <path id="Path_5" data-name="Path 5" d="M55.786,204.921v3.6a8.1,8.1,0,0,0-4.176,1.244l-1.221-1.8,1.221-1.8A8.1,8.1,0,0,1,55.786,204.921Z" transform="translate(-21.94 -194.121)" fill="#06223d"/>
    <path id="Path_6" data-name="Path 6" d="M156.967,205.49v3.6a14.562,14.562,0,0,0-4.177-.622v-3.6A14.541,14.541,0,0,1,156.967,205.49Z" transform="translate(-118.944 -194.067)" fill="#e8e8e8"/>
    <path id="Path_7" data-name="Path 7" d="M156.967,137.239v3.6a14.563,14.563,0,0,0-4.177-.622v-3.6A14.543,14.543,0,0,1,156.967,137.239Z" transform="translate(-118.944 -129.414)" fill="#06223d"/>
    <path id="Path_8" data-name="Path 8" d="M55.786,68.307v3.6a8.1,8.1,0,0,0-4.176,1.244l-1.221-1.945,1.221-1.655A8.1,8.1,0,0,1,55.786,68.307Z" transform="translate(-21.94 -64.707)" fill="#06223d"/>
    <path id="Path_9" data-name="Path 9" d="M156.967,68.988v3.6a14.561,14.561,0,0,0-4.177-.622v-3.6A14.543,14.543,0,0,1,156.967,68.988Z" transform="translate(-118.944 -64.76)" fill="#e8e8e8"/>
    <path id="Path_10" data-name="Path 10" d="M156.967.737v3.6a14.562,14.562,0,0,0-4.177-.622V.115a14.545,14.545,0,0,1,4.177.622Z" transform="translate(-118.944 -0.106)" fill="#06223d"/>
    <g id="Group_5" data-name="Group 5" transform="translate(28.449 0)">
      <path id="Path_11" data-name="Path 11" d="M55.786,136.614v3.6a8.1,8.1,0,0,0-4.176,1.244l-1.221-1.909,1.221-1.69A8.1,8.1,0,0,1,55.786,136.614Z" transform="translate(-50.389 -129.414)" fill="#e8e8e8"/>
      <path id="Path_12" data-name="Path 12" d="M55.786,0V3.6A8.1,8.1,0,0,0,51.61,4.844l-1.221-2,1.221-1.6A8.1,8.1,0,0,1,55.786,0Z" transform="translate(-50.389 0)" fill="#e8e8e8"/>
      <path id="Path_13" data-name="Path 13" d="M315.462,240.946v3.6a14.54,14.54,0,0,1-4.176-.622v-3.6A14.559,14.559,0,0,0,315.462,240.946Z" transform="translate(-297.535 -227.658)" fill="#e8e8e8"/>
    </g>
    <path id="Path_14" data-name="Path 14" d="M394.7,228.523v3.125a.822.822,0,0,1-.425.723,8.073,8.073,0,0,1-3.752,1v-3.6A8.1,8.1,0,0,0,394.7,228.523Z" transform="translate(-344.148 -216.479)" fill="#06223d"/>
    <path id="Path_15" data-name="Path 15" d="M315.462,172.668v3.6a14.54,14.54,0,0,1-4.176-.622v-3.6A14.561,14.561,0,0,0,315.462,172.668Z" transform="translate(-269.087 -162.978)" fill="#06223d"/>
    <path id="Path_16" data-name="Path 16" d="M390.524,165.089v-3.6a8.1,8.1,0,0,0,4.177-1.244v3.6a8.1,8.1,0,0,1-4.177,1.244" transform="translate(-344.148 -151.799)" fill="#e8e8e8"/>
    <path id="Path_17" data-name="Path 17" d="M390.524,96.81v-3.6a8.1,8.1,0,0,0,4.177-1.244v3.6a8.1,8.1,0,0,1-4.177,1.244" transform="translate(-344.148 -87.119)" fill="#06223d"/>
    <path id="Path_18" data-name="Path 18" d="M315.462,104.389v3.6a14.54,14.54,0,0,1-4.176-.622v-3.6A14.558,14.558,0,0,0,315.462,104.389Z" transform="translate(-269.087 -98.298)" fill="#e8e8e8"/>
    <path id="Path_19" data-name="Path 19" d="M315.462,36.11v3.6a14.54,14.54,0,0,1-4.176-.622v-3.6A14.557,14.557,0,0,0,315.462,36.11Z" transform="translate(-269.087 -33.618)" fill="#06223d"/>
    <path id="Path_20" data-name="Path 20" d="M393.683,32.815a8.1,8.1,0,0,1-3.159.7v3.6a8.1,8.1,0,0,0,4.177-1.244v-2.4A.72.72,0,0,0,393.683,32.815Z" transform="translate(-344.148 -31.024)" fill="#e8e8e8"/>
    <path id="Path_21" data-name="Path 21" d="M236.215,149.664v3.6c-1.392-.38-2.785-.864-4.177-1.244v-3.6C233.43,148.8,234.823,149.284,236.215,149.664Z" transform="translate(-194.016 -140.598)" fill="#e8e8e8"/>
    <path id="Path_22" data-name="Path 22" d="M236.215,81.362v3.6c-1.392-.38-2.785-.864-4.177-1.244v-3.6C233.43,80.5,234.823,80.982,236.215,81.362Z" transform="translate(-194.016 -75.895)" fill="#06223d"/>
    <path id="Path_23" data-name="Path 23" d="M236.215,13.06v3.6c-1.392-.38-2.785-.864-4.177-1.244v-3.6C233.43,12.2,234.823,12.68,236.215,13.06Z" transform="translate(-194.016 -11.193)" fill="#e8e8e8"/>
    <path id="Path_24" data-name="Path 24" d="M50.389,216.491l1.221,1.8a8.366,8.366,0,0,1,1.581-.77v-3.6a8.366,8.366,0,0,0-1.581.77Z" transform="translate(-21.94 -202.647)" fill="#10365b"/>
    <path id="Path_25" data-name="Path 25" d="M50.389,148.076l1.221,1.909a8.363,8.363,0,0,1,1.581-.769v-3.6a8.362,8.362,0,0,0-1.581.769Z" transform="translate(-21.94 -137.941)" fill="#06223d" opacity="0.1"/>
    <path id="Path_26" data-name="Path 26" d="M50.389,79.733l1.221,1.945a8.363,8.363,0,0,1,1.581-.77v-3.6a8.365,8.365,0,0,0-1.581.769Z" transform="translate(-21.94 -73.234)" fill="#10365b"/>
    <path id="Path_27" data-name="Path 27" d="M50.389,12.18l1.221,2a8.363,8.363,0,0,1,1.581-.769v-2.83a2.205,2.205,0,0,0-.122-.725,8.4,8.4,0,0,0-1.459.724Z" transform="translate(-21.94 -9.341)" fill="#06223d" opacity="0.1"/>
    <path id="Path_28" data-name="Path 28" d="M29.036,11.585H27.862a.634.634,0,0,0-.634.634V33.341a.634.634,0,0,0,.634.634h1.174a.634.634,0,0,0,.634-.634V12.219A.634.634,0,0,0,29.036,11.585Z" transform="translate(0 -10.974)" fill="#ffab02"/>
  </g>
</svg>
