<svg xmlns="http://www.w3.org/2000/svg" width="34" height="34" viewBox="0 0 34 34">
  <g id="Group_23" data-name="Group 23" transform="translate(-798 -439)">
    <g id="Rectangle_24" data-name="Rectangle 24" transform="translate(800 441)" fill="#ffab02" stroke="#121721" stroke-width="2">
      <rect width="30" height="30" rx="15" stroke="none"/>
      <rect x="-1" y="-1" width="32" height="32" rx="16" fill="none"/>
    </g>
    <g id="refresh" transform="translate(806.049 446.763)">
      <path id="Path_58" data-name="Path 58" d="M14.672,9.676a.686.686,0,0,0-.786.585,4.436,4.436,0,0,1-1.268,2.507A4.5,4.5,0,0,1,6.249,6.4,4.444,4.444,0,0,1,8.676,5.152a4.287,4.287,0,0,1,1.28-.039,4.445,4.445,0,0,1,1.709.574l-.9.154a.693.693,0,0,0,.116,1.376A.7.7,0,0,0,11,7.208l2.418-.413a.693.693,0,0,0,.566-.8l-.414-2.418A.693.693,0,1,0,12.2,3.81l.109.636a5.836,5.836,0,0,0-2.2-.71,5.614,5.614,0,0,0-1.683.052A5.806,5.806,0,0,0,5.269,5.419,5.889,5.889,0,0,0,13.6,13.748a5.814,5.814,0,0,0,1.659-3.285.693.693,0,0,0-.585-.786Z" fill="#fff"/>
    </g>
  </g>
</svg>
